<svg width="5267" height="2011" viewBox="0 0 5267 2011" fill="none" xmlns="http://www.w3.org/2000/svg">
<path d="M284.333 1119.99C159.259 1051.46 82.7451 946.949 61.6625 792.943C45.4361 675.567 18.6698 559.898 3.9831 442.259C-3.71559 380.42 1.25825 315.693 6.23279 252.935C11.2073 191.359 33.5917 175.604 88.0747 186.107C205.45 208.689 310.391 266.721 412.724 330.529C453.824 356 494.094 364.403 540.049 352.98C695.562 314.38 853.68 298.625 1012.63 294.161C1053.85 293.111 1085.94 277.093 1115.32 245.845C1195.62 160.111 1279 78.1843 1379.56 21.2032C1388.21 16.2141 1397.21 11.4876 1406.33 7.68009C1443.28 -7.68118 1467.92 -1.3792 1481.18 39.1903C1505.7 114.815 1527.97 192.015 1543.48 270.397C1556.28 335.124 1558.53 402.478 1564.33 468.781C1568.71 517.621 1570.61 566.856 1574.87 615.697C1588.73 773.249 1534.6 897.583 1423.5 992.77C1323.66 1078.24 1206.4 1113.82 1083.93 1133.12C1053.73 1137.85 1023.41 1142.44 987.047 1148.09C1027.67 1174.22 1066.64 1187.74 1107.86 1186.43C1136.52 1185.64 1146.23 1199.56 1154.28 1227C1191.95 1355.4 1221.08 1485.38 1222.03 1621.4C1222.86 1748.62 1193.25 1861.8 1096.6 1942.02C937.301 2074.49 665.714 2022.24 604.125 1732.34C576.054 1600.13 577.475 1465.56 583.042 1330.85C584.937 1283.98 588.371 1237.11 591.332 1187.21C485.919 1184.06 382.521 1172.12 284.333 1119.99ZM615.02 767.078C615.652 762.701 616.286 758.369 616.917 754.08C628.761 669.79 601.519 603.487 538.626 556.615C476.444 510.4 398.748 511.976 338.699 559.241C275.925 608.739 254.25 678.324 267.397 760.644C280.899 845.197 349.594 910.975 425.988 916.358C515.175 922.791 584.344 869.749 615.02 767.078ZM1055.5 766.947C1061.19 772.986 1066.52 779.419 1072.56 784.934C1132.85 840.471 1219.19 845.722 1284.33 798.063C1351.37 748.96 1379.8 659.812 1355.63 574.209C1332.18 491.494 1262.78 435.301 1183.54 437.927C1112.24 440.159 1059.41 479.415 1028.38 549.132C994.745 624.888 1006.11 697.361 1055.5 766.947ZM933.866 958.897C965.135 945.111 984.085 920.034 986.217 882.747C986.809 873.819 976.979 864.103 972.004 854.781C964.898 861.609 956.962 867.648 951.158 875.526C947.724 880.121 949.616 890.625 945.826 893.644C932.324 904.542 917.402 920.953 903.189 920.691C888.739 920.428 869.789 906.117 862.09 891.806C857.116 882.747 867.775 861.74 873.816 847.429C878.317 836.794 887.79 828.786 893.002 818.413C907.096 790.186 897.386 767.997 868.605 764.583C852.142 762.614 834.965 763.402 818.502 766.159C794.814 770.098 764.613 768.916 758.336 802.133C752.413 833.381 778.825 846.116 798.367 860.427C821.108 877.233 823.596 900.078 804.527 921.872C782.733 946.818 746.136 941.304 728.962 909.925C721.974 897.189 716.879 876.445 700.297 891.15C693.902 896.927 693.903 919.772 698.522 931.063C713.919 968.875 754.071 988.963 790.196 977.278C809.502 970.976 827.148 958.24 845.507 948.393C845.033 950.494 844.521 952.551 843.968 954.564C872.631 956.665 901.177 958.897 933.866 958.897ZM174.538 338.669C152.152 329.216 129.649 319.763 103.828 308.866C93.2871 404.185 108.921 489.262 133.202 571.189C189.935 521.954 245.247 474.032 304.586 422.565C262.895 395.388 220.73 368.079 174.538 338.669ZM1305.53 331.973C1350.42 354.687 1395.43 377.532 1442.93 401.559C1443.52 312.542 1441.51 224.838 1404.08 130.439C1345.8 191.621 1292.86 247.29 1235.89 307.159C1263.96 317.137 1282.44 323.833 1305.53 331.973ZM643.329 1585.95C649.962 1633.35 653.752 1681.4 663.938 1727.75C680.165 1800.75 712.379 1863.9 774.442 1901.32C783.325 1906.7 798.605 1899.48 810.804 1898.03C807.251 1885.96 807.133 1868.36 799.553 1862.59C736.305 1814.27 709.537 1743.9 698.285 1663.81C692.837 1625.08 689.875 1585.95 686.204 1546.96C684.427 1527.92 683.125 1505.99 660.384 1507.7C636.933 1509.41 639.895 1532.25 640.487 1550.76C640.842 1560.61 641.908 1570.33 643.329 1585.95Z" fill="white"/>
<path d="M2957.52 770.067C3051.21 777.29 3119.2 829.697 3174.27 906.138C3197.01 937.661 3216.67 971.81 3238.58 1004.12C3272.93 1054.56 3312.61 1054.16 3346.72 1002.94C3370.76 966.95 3391.85 928.467 3417.19 893.661C3497.73 783.201 3623.4 741.696 3741.25 784.646C3818.23 812.753 3868.57 873.434 3903.98 951.189C3950.18 1052.46 3968.06 1162.13 3977.3 1273.51C3990.21 1428.89 3986.3 1584 3949.23 1735.7C3939.64 1775.24 3926.13 1815.43 3907.18 1850.24C3858.5 1939.29 3784 1977.51 3691.26 1965.29C3594.62 1952.55 3522.25 1900.15 3491.1 1793.36C3472.27 1729.27 3479.02 1663.86 3490.51 1598.71C3497.14 1560.49 3500.93 1521.61 3506.02 1483C3503.1 1481.77 3500.22 1480.59 3497.38 1479.45C3492.52 1488.78 3488.02 1498.37 3482.69 1507.43C3459.83 1546.83 3440.41 1589.65 3413.05 1624.59C3348.38 1707.2 3253.15 1711.01 3184.81 1632.34C3154.61 1597.53 3134 1552.61 3109.36 1511.89C3103.09 1501.65 3098.11 1490.49 3092.55 1479.58C3089.78 1480.46 3086.98 1481.29 3084.14 1482.08C3089.23 1518.86 3092.9 1556.03 3099.65 1592.41C3111.38 1656.24 3118.37 1720.07 3102.61 1784.04C3076.2 1891.22 3009.04 1949.27 2913.11 1964.5C2820.25 1979.22 2741.13 1948.22 2687.48 1857.72C2646.97 1789.56 2631.81 1711.41 2620.8 1632.34C2594.26 1441.1 2594.38 1250.52 2641.88 1063.36C2656.21 1006.48 2679.54 950.007 2708.8 900.753C2765.88 804.61 2851.16 763.105 2957.52 770.067ZM2869.76 897.076C2884.92 887.225 2915.48 889.195 2902.69 856.228C2891.55 827.858 2869.52 841.123 2851.64 849.529C2809.47 869.1 2776.78 901.41 2751.2 943.046C2702.88 1022.11 2685.23 1112.74 2673.86 1205.08C2672.44 1216.63 2686.06 1230.43 2692.81 1243.3C2701.45 1232.4 2715.07 1222.81 2718.15 1210.2C2730 1160.81 2735.44 1109.33 2749.3 1060.73C2769.2 991.38 2803.79 932.276 2869.76 897.076ZM3448.7 942.258C3405.58 993.613 3388.53 1072.55 3308.94 1092.65C3345.65 1114.97 3374.79 1109.59 3397.77 1088.44C3419.2 1068.74 3436.74 1042.6 3452.37 1016.6C3483.16 965.637 3519.17 922.162 3570.69 897.076C3586.09 889.721 3601.61 880.527 3591.66 858.592C3581.94 837.315 3563.47 842.568 3550.68 852.682C3516.68 880.001 3484.47 909.816 3448.7 942.258ZM2701.22 1321.97C2678.12 1306.08 2666.28 1310.15 2662.13 1337.47C2659.41 1355.73 2657.75 1374.9 2660.24 1392.9C2661.42 1401.7 2672.79 1414.44 2680.37 1415.09C2687.12 1415.62 2700.03 1403.14 2701.34 1394.87C2704.77 1372.54 2703.47 1349.42 2701.22 1321.97Z" fill="white"/>
<path d="M1675.28 1685.52C1705.65 1739.64 1754.88 1764.61 1804.82 1788.25C1813.83 1792.59 1823.44 1795.22 1835.54 1799.68C1832.22 1809.01 1829.85 1817.95 1826.17 1826.09C1775.64 1936.19 1666.86 1991.23 1548.12 1966.93C1440.89 1944.99 1360.34 1842.91 1349.31 1717.05C1339.35 1602.09 1362.83 1493.18 1396.52 1386.24C1453.22 1206.51 1534.6 1043.08 1658.32 908.413C1734.48 825.513 1822.37 769.152 1932.81 766.13C2049.06 762.977 2143.96 817.368 2223.32 905.391C2398.05 1099.17 2505.17 1333.03 2545.38 1602.75C2558.78 1692.87 2550.12 1782.47 2498.52 1859.72C2439.69 1947.48 2358.78 1982.69 2262.46 1970.74C2166.14 1958.91 2099.24 1900.58 2061.04 1799.55C2125.57 1775.64 2185 1745.29 2225.69 1679.87C2044.56 1759.48 1863.78 1764.21 1679.55 1680.52C1674.69 1679.6 1673.15 1680 1671.72 1680.39C1672.91 1682.14 1674.1 1683.85 1675.28 1685.52ZM2032.57 1415.14C2042.89 1411.33 2052.98 1407.12 2063.41 1403.84C2082.16 1397.93 2088.8 1384.27 2084.29 1364.03C2070.41 1300.84 2049.77 1240.67 2011.22 1190.48C1970.89 1138.06 1925.93 1138.46 1886.19 1190.88C1850.61 1237.78 1829.61 1292.96 1816.8 1352.08C1808.73 1389.39 1812.41 1398.32 1845.86 1409.49C1905.77 1429.33 1966.62 1427.75 2032.57 1415.14ZM1698.65 951.768C1681.81 971.606 1664.13 990.656 1648.36 1011.54C1630.8 1034.93 1613.48 1058.97 1599.25 1084.99C1595.1 1092.74 1598.42 1112.97 1604.58 1118.22C1610.63 1123.35 1625.46 1118.22 1635.31 1114.15C1640.88 1111.92 1644.32 1103.12 1648.47 1097.07C1703.52 1014.7 1764.01 939.549 1853.57 901.712C1869.47 895.012 1880.5 878.853 1869.47 864.007C1862.59 854.81 1838.86 850.081 1829.37 856.124C1785.6 884.502 1744.08 917.346 1698.65 951.768ZM1577.06 1218.2C1576.43 1204.45 1575.8 1190.74 1575.17 1177.08C1565.32 1177.87 1550.49 1174.59 1546.46 1180.37C1533.53 1198.76 1523.09 1220.04 1515.14 1241.59C1512.77 1248.16 1519.77 1265.37 1525.58 1267.6C1533.41 1270.75 1547.29 1267.21 1553.34 1260.77C1562.83 1250.52 1568.05 1235.41 1577.06 1218.2Z" fill="white"/>
<path d="M4388.38 1684.85C4416.45 1734.57 4461.23 1759.37 4507.07 1782.33C4520.34 1789.02 4534.32 1793.87 4550.66 1800.83C4516.67 1892.27 4457.44 1948.29 4372.03 1965.48C4204.53 1999.46 4069.61 1878.1 4062.5 1689.97C4057.29 1553.52 4093.3 1426.92 4139.86 1303.33C4201.69 1139.07 4284.85 990.295 4408.51 874.055C4559.78 731.706 4746.83 729.87 4899.99 869.332C5034.2 991.607 5120.68 1152.32 5188.55 1326.42C5228.24 1428.23 5257.85 1533.19 5261.64 1644.97C5265.67 1763.3 5236.41 1866.42 5139.99 1932.15C5013.83 2018.09 4841.6 1962.85 4780.83 1818.67C4778.46 1813.03 4776.8 1806.86 4774.43 1799.91C4837.45 1775.64 4895.97 1746.25 4936.12 1681.96C4755.36 1759.24 4575.66 1762.25 4392.88 1679.08C4387.79 1678.16 4386.36 1678.55 4384.82 1679.08C4386.01 1681 4387.19 1682.92 4388.38 1684.85ZM4768.15 1268.17C4754.88 1244.03 4743.51 1218.18 4727.88 1196.01C4685.94 1136.58 4631.69 1134.87 4594.61 1198.5C4566.42 1247.05 4549.95 1303.99 4529.22 1357.78C4519.87 1382.18 4530.53 1397 4551.97 1404.61C4626.6 1430.72 4700.98 1429.28 4775.61 1404.35C4795.87 1397.66 4802.5 1383.49 4796.7 1362.5C4788.41 1332.32 4778.81 1302.67 4768.15 1268.17ZM4411.48 1030.18C4454.24 976.388 4502.1 930.338 4563.1 903.18C4578.03 896.489 4591.89 884.025 4580.75 866.576C4574.95 857.655 4556.47 855.95 4543.68 855.818C4534.79 855.818 4525.55 863.559 4517.02 868.807C4433.87 919.317 4371.44 994.362 4318.37 1079.38C4312.68 1088.43 4318.25 1106.14 4318.49 1119.79C4331.28 1116.24 4348.1 1117.03 4355.92 1108.11C4375.7 1085.54 4391.34 1058.65 4411.48 1030.18ZM4256.18 1185.78C4249.19 1198.9 4241.85 1211.62 4235.45 1225.01C4227.99 1240.36 4223.01 1259.64 4241.25 1265.94C4250.38 1269.09 4265.89 1257.02 4275.61 1247.96C4283.31 1240.75 4288.76 1228.55 4291.6 1217.4C4294.56 1205.98 4293.02 1193.26 4293.37 1181.19C4282 1181.58 4270.63 1181.97 4256.18 1185.78Z" fill="white"/>
<path d="M5099.14 750.765C5110.12 722.859 5119.91 697.05 5131.72 666C5146.24 748.144 5187.67 800.549 5267 822.035C5186.73 844.045 5145.06 896.973 5131.25 982C5115.55 898.939 5074.59 843.39 5006 828.323C5035.75 803.955 5066.91 778.408 5099.14 750.765Z" fill="white" fill-opacity="0.75"/>
<path d="M613.924 770.458C583.713 870.751 514.526 923.924 425.316 917.475C348.901 912.079 280.188 846.138 266.683 761.377C253.532 678.853 275.213 609.095 338.003 559.476C398.069 512.093 475.786 510.514 537.984 556.843C600.893 603.831 628.143 670.297 616.295 754.796C615.585 759.139 614.99 763.483 613.924 770.458ZM406.125 644.369C382.549 696.226 388.473 746.636 414.892 794.149C433.729 828.238 463.109 846.796 499.48 843.637C536.562 840.347 560.256 814.287 572.933 776.644C587.505 733.474 585.49 690.303 566.297 649.37C529.808 571.453 452.922 567.109 406.125 644.369Z" fill="#020202"/>
<path d="M1053.01 765.013C1005.05 697.422 993.684 625.256 1027.31 549.821C1058.34 480.401 1111.15 441.31 1182.44 439.088C1261.66 436.473 1331.05 492.428 1354.5 574.792C1378.65 660.032 1350.23 748.802 1283.21 797.697C1218.08 845.154 1131.76 839.925 1071.48 784.623C1065.44 779.132 1060.11 772.726 1053.01 765.013ZM1234.9 661.47C1228.15 629.309 1225.66 595.056 1213.35 565.64C1197.95 528.511 1166.69 509.947 1128.68 513.738C1090.55 517.66 1063.67 542.892 1054.08 581.983C1046.97 611.398 1044.84 644.736 1049.58 674.544C1058.34 730.106 1100.97 767.497 1145.85 767.235C1189.07 766.843 1220.33 733.113 1233 673.367C1233.48 671.145 1233.83 669.053 1234.9 661.47Z" fill="#020202"/>
<path d="M930.607 961.363C899.93 960.313 871.385 958.082 842.721 955.983C843.274 953.971 843.786 951.915 844.26 949.815C825.901 959.657 808.253 972.386 788.947 978.685C752.821 990.365 712.668 970.287 697.27 932.493C692.651 921.207 692.649 898.373 699.045 892.599C715.628 877.901 720.723 898.635 727.711 911.365C744.886 942.729 781.484 948.24 803.278 923.306C822.348 901.522 819.86 878.689 797.119 861.891C777.575 847.587 751.163 834.858 757.085 803.625C763.363 770.424 793.565 771.605 817.254 767.668C833.718 764.912 850.895 764.125 867.359 766.093C896.141 769.505 905.851 791.683 891.756 819.898C886.545 830.265 877.071 838.27 872.57 848.899C866.529 863.203 855.869 884.2 860.844 893.255C868.543 907.559 887.494 921.863 901.944 922.125C916.157 922.388 931.08 905.984 944.583 895.092C948.373 892.074 946.48 881.575 949.915 876.982C955.719 869.109 963.655 863.072 970.762 856.248C975.736 865.565 985.567 875.277 984.974 884.2C982.842 921.469 963.89 946.534 930.607 961.363Z" fill="#020202"/>
<path d="M176.655 339.802C220.595 368.366 262.534 395.745 304 422.993C244.981 474.592 189.968 522.638 133.54 572C109.391 489.862 93.8413 404.565 104.326 309C130.007 319.925 152.388 329.403 176.655 339.802Z" fill="#020202"/>
<path d="M1302.36 332.658C1281.52 325.309 1263.06 318.616 1235 308.642C1291.94 248.799 1344.85 193.155 1403.1 132C1440.5 226.358 1442.52 314.023 1441.92 403C1394.45 378.984 1349.47 356.149 1302.36 332.658Z" fill="#050505"/>
<path d="M642.93 1583.52C641.862 1570.77 640.795 1561.05 640.439 1551.19C639.846 1532.67 636.88 1509.8 660.365 1508.09C683.138 1506.39 684.442 1528.33 686.221 1547.38C689.898 1586.41 692.864 1625.57 698.32 1664.33C709.588 1744.48 736.395 1814.91 799.733 1863.27C807.324 1869.05 807.442 1886.66 811 1898.75C798.783 1900.19 783.482 1907.42 774.586 1902.03C712.434 1864.58 680.174 1801.38 663.924 1728.32C653.724 1681.94 649.928 1633.84 642.93 1583.52Z" fill="#020202"/>
<path d="M2868.01 897.836C2804.04 932.221 2769.46 991.28 2749.56 1060.58C2735.7 1109.13 2730.25 1160.58 2718.4 1209.93C2715.32 1222.53 2701.7 1232.11 2693.06 1243C2686.3 1230.14 2672.68 1216.36 2674.1 1204.81C2685.47 1112.55 2703.12 1021.99 2751.45 942.983C2777.04 901.38 2809.73 869.095 2851.9 849.54C2869.79 841.14 2891.82 827.885 2902.95 856.233C2915.75 889.174 2885.18 887.206 2868.01 897.836Z" fill="#020202"/>
<path d="M3450.25 940.62C3484.62 909.907 3516.85 880.112 3550.86 852.812C3563.66 842.705 3582.14 837.455 3591.86 858.718C3601.81 880.638 3586.29 889.825 3570.88 897.175C3519.34 922.245 3483.31 965.69 3452.5 1016.62C3436.86 1042.6 3419.32 1068.72 3397.87 1088.41C3374.89 1109.54 3345.73 1114.93 3309 1092.61C3388.63 1072.53 3405.7 993.647 3450.25 940.62Z" fill="#020202"/>
<path d="M2703.04 1325.14C2703.88 1350.25 2705.2 1373.39 2701.73 1395.74C2700.41 1404.02 2687.38 1416.51 2680.56 1415.98C2672.91 1415.33 2661.43 1402.57 2660.23 1393.77C2657.72 1375.76 2659.39 1356.56 2662.14 1338.29C2666.33 1310.95 2678.29 1306.87 2703.04 1325.14Z" fill="#020202"/>
<path d="M2029.32 1415.06C1965.74 1427.14 1904.77 1428.71 1844.75 1408.89C1811.23 1397.73 1807.54 1388.81 1815.62 1351.53C1828.46 1292.47 1849.5 1237.34 1885.15 1190.48C1924.97 1138.1 1970.02 1137.71 2010.43 1190.08C2049.05 1240.22 2069.73 1300.34 2083.64 1363.48C2088.15 1383.69 2081.5 1397.34 2062.72 1403.25C2052.26 1406.53 2042.16 1410.73 2029.32 1415.06Z" fill="#020202"/>
<path d="M1699.6 950.149C1743.41 917.176 1784.84 884.202 1828.53 855.713C1838.01 849.646 1861.69 854.394 1868.55 863.627C1879.56 878.531 1868.55 894.754 1852.69 901.48C1763.3 939.466 1702.91 1014.91 1647.98 1097.61C1643.83 1103.67 1640.4 1112.51 1634.83 1114.75C1625.01 1118.84 1610.21 1123.99 1604.17 1118.84C1598.01 1113.57 1594.7 1093.25 1598.84 1085.47C1613.05 1059.36 1630.33 1035.22 1647.86 1011.74C1663.6 990.773 1681.25 971.648 1699.6 950.149Z" fill="#020202"/>
<path d="M1575.91 1220.49C1567.91 1235.61 1562.74 1250.74 1553.33 1260.99C1547.33 1267.44 1533.58 1270.99 1525.82 1267.83C1520.06 1265.6 1513.12 1248.37 1515.47 1241.79C1523.35 1220.23 1533.7 1198.93 1546.51 1180.52C1550.51 1174.73 1565.21 1178.02 1574.96 1177.23C1575.55 1190.91 1576.26 1204.71 1575.91 1220.49Z" fill="#020202"/>
<path d="M1675.33 1684C1673.28 1683.28 1672.14 1681.42 1671 1679.56C1672.37 1679.13 1673.85 1678.7 1676.47 1679.28C1677.84 1680.28 1676.24 1682.85 1675.33 1684Z" fill="white"/>
<path d="M4768.14 1270.5C4778.09 1302.83 4787.69 1332.54 4795.98 1362.77C4801.79 1383.79 4795.15 1397.99 4774.89 1404.69C4700.23 1429.66 4625.82 1431.11 4551.16 1404.95C4529.71 1397.33 4519.05 1382.48 4528.41 1358.03C4549.15 1304.15 4565.62 1247.11 4593.82 1198.48C4630.91 1134.74 4685.19 1136.44 4727.14 1195.98C4742.78 1218.19 4754.15 1244.08 4768.14 1270.5Z" fill="#020202"/>
<path d="M4409.6 1032.29C4390.81 1059.09 4375.11 1085.88 4355.25 1108.37C4347.4 1117.25 4330.52 1116.47 4317.68 1120C4317.44 1106.41 4311.85 1088.76 4317.56 1079.74C4370.83 995.036 4433.5 920.266 4516.97 869.941C4525.53 864.712 4534.81 857 4543.73 857C4556.57 857.131 4575.12 858.83 4580.95 867.719C4592.12 885.104 4578.21 897.522 4563.23 904.188C4501.99 931.247 4453.95 977.128 4409.6 1032.29Z" fill="#020202"/>
<path d="M4257.57 1184.84C4270.73 1182.78 4282.32 1182.39 4293.91 1182C4293.54 1193.89 4295.12 1206.43 4292.1 1217.67C4289.2 1228.66 4283.64 1240.68 4275.8 1247.79C4265.9 1256.71 4250.08 1268.6 4240.79 1265.5C4222.19 1259.29 4227.26 1240.29 4234.87 1225.17C4241.39 1211.99 4248.87 1199.45 4257.57 1184.84Z" fill="#020202"/>
<path d="M4389.17 1684C4386.65 1683.25 4385.32 1681.49 4384 1679.61C4385.72 1679.11 4387.31 1678.74 4390.49 1679.24C4391.55 1681.12 4390.89 1681.99 4389.17 1684Z" fill="white"/>
<path d="M407.461 642.674C453.081 567.848 529.586 572.181 565.893 649.894C584.99 690.72 586.995 733.778 572.496 776.836C559.882 814.38 536.306 840.372 499.409 843.654C463.219 846.804 433.986 828.295 415.243 794.295C388.955 746.905 383.059 696.628 407.461 642.674Z" fill="white"/>
<path d="M1235 664.566C1234.17 669.423 1233.82 671.523 1233.35 673.754C1220.72 733.74 1189.56 767.605 1146.48 767.999C1101.75 768.261 1059.26 730.721 1050.52 674.936C1045.8 645.009 1047.93 611.537 1055.01 582.004C1064.57 542.757 1091.36 517.424 1129.37 513.487C1167.25 509.68 1198.41 528.319 1213.75 565.597C1226.03 595.13 1228.51 629.52 1235 664.566Z" fill="white"/>
</svg>
